<svg xmlns="http://www.w3.org/2000/svg" viewBox="0 0 1200 700" role="img" aria-label="A1-Plakat-Mockup an einer Wand mit Beispiel-Layout in 2fox4-Schwarz-Orange">
  <defs>
    <linearGradient id="wall" x1="0" y1="0" x2="0" y2="1">
      <stop offset="0%" stop-color="#1c1c1c"/>
      <stop offset="55%" stop-color="#111111"/>
      <stop offset="100%" stop-color="#070707"/>
    </linearGradient>
    <pattern id="brickPattern" x="0" y="0" width="80" height="40" patternUnits="userSpaceOnUse">
      <rect width="80" height="40" fill="#161616"/>
      <rect x="0" y="0" width="78" height="18" fill="#181818"/>
      <rect x="0" y="22" width="38" height="18" fill="#181818"/>
      <rect x="42" y="22" width="36" height="18" fill="#181818"/>
    </pattern>
    <linearGradient id="paper" x1="0" y1="0" x2="0" y2="1">
      <stop offset="0%" stop-color="#0c0c0c"/>
      <stop offset="100%" stop-color="#050505"/>
    </linearGradient>
    <linearGradient id="orangeGrad" x1="0" y1="0" x2="1" y2="1">
      <stop offset="0%" stop-color="#ff6b35"/>
      <stop offset="100%" stop-color="#ff8a5a"/>
    </linearGradient>
    <linearGradient id="floor" x1="0" y1="0" x2="0" y2="1">
      <stop offset="0%" stop-color="#0a0a0a"/>
      <stop offset="100%" stop-color="#000"/>
    </linearGradient>
    <filter id="bigShadow" x="-20%" y="-20%" width="140%" height="140%">
      <feGaussianBlur in="SourceAlpha" stdDeviation="22"/>
      <feOffset dx="14" dy="22" result="off"/>
      <feComponentTransfer><feFuncA type="linear" slope="0.6"/></feComponentTransfer>
      <feMerge><feMergeNode/><feMergeNode in="SourceGraphic"/></feMerge>
    </filter>
    <filter id="paperTexture">
      <feTurbulence type="fractalNoise" baseFrequency="0.9" numOctaves="2"/>
      <feColorMatrix values="0 0 0 0 0 0 0 0 0 0 0 0 0 0 0 0 0 0 0.05 0"/>
      <feComposite in2="SourceGraphic" operator="in"/>
    </filter>
  </defs>

  <!-- Wall -->
  <rect width="1200" height="560" fill="url(#wall)"/>
  <rect width="1200" height="560" fill="url(#brickPattern)" opacity="0.6"/>
  <!-- Floor -->
  <rect y="560" width="1200" height="140" fill="url(#floor)"/>
  <!-- Floor reflection of poster -->
  <polygon points="430,560 770,560 800,640 400,640" fill="#000" opacity="0.5"/>

  <!-- Lighting spotlight -->
  <ellipse cx="600" cy="280" rx="500" ry="320" fill="#ff6b35" opacity="0.04"/>
  <ellipse cx="600" cy="280" rx="320" ry="220" fill="#ff6b35" opacity="0.05"/>

  <!-- Poster -->
  <g transform="translate(390 60)" filter="url(#bigShadow)">
    <!-- A1 ratio ~ 594×841mm => 420×595 px works -->
    <rect x="0" y="0" width="420" height="595" fill="url(#paper)" stroke="#222" stroke-width="1"/>

    <!-- Top brand strip -->
    <rect x="0" y="0" width="420" height="80" fill="#0a0a0a"/>
    <text x="32" y="50" font-family="Inter, Arial, sans-serif" font-weight="800" font-size="28" fill="#ff6b35" letter-spacing="3">2FOX4</text>
    <rect x="320" y="36" width="68" height="3" fill="#ff6b35"/>
    <text x="320" y="58" font-family="Inter, Arial, sans-serif" font-weight="500" font-size="10" fill="#999" letter-spacing="1">PRINT &amp; MESSE</text>

    <!-- Huge headline -->
    <text x="32" y="170" font-family="Inter, Arial, sans-serif" font-weight="900" font-size="52" fill="#fff" letter-spacing="-2">DRUCK,</text>
    <text x="32" y="230" font-family="Inter, Arial, sans-serif" font-weight="900" font-size="52" fill="#fff" letter-spacing="-2">DER</text>
    <text x="32" y="290" font-family="Inter, Arial, sans-serif" font-weight="900" font-size="52" fill="url(#orangeGrad)" letter-spacing="-2">WIRKT.</text>

    <!-- Diagonal orange block -->
    <polygon points="0,320 420,300 420,360 0,380" fill="url(#orangeGrad)"/>
    <text x="32" y="350" font-family="Inter, Arial, sans-serif" font-weight="700" font-size="14" fill="#0a0a0a" letter-spacing="1">VON DER IDEE BIS ZUM MESSESTAND</text>

    <!-- Decorative grid -->
    <g opacity="0.5">
      <line x1="32" y1="410" x2="388" y2="410" stroke="#333" stroke-width="1"/>
      <line x1="32" y1="430" x2="388" y2="430" stroke="#333" stroke-width="1"/>
      <line x1="32" y1="450" x2="388" y2="450" stroke="#333" stroke-width="1"/>
    </g>

    <!-- 3 feature bullets -->
    <g transform="translate(32 470)">
      <rect x="0" y="0" width="6" height="6" fill="#ff6b35"/>
      <text x="16" y="8" font-family="Inter, Arial, sans-serif" font-size="11" fill="#ddd" letter-spacing="0.5">Konzept &amp; Layout</text>
    </g>
    <g transform="translate(150 470)">
      <rect x="0" y="0" width="6" height="6" fill="#ff6b35"/>
      <text x="16" y="8" font-family="Inter, Arial, sans-serif" font-size="11" fill="#ddd" letter-spacing="0.5">Druck-Reinzeichnung</text>
    </g>
    <g transform="translate(300 470)">
      <rect x="0" y="0" width="6" height="6" fill="#ff6b35"/>
      <text x="16" y="8" font-family="Inter, Arial, sans-serif" font-size="11" fill="#ddd" letter-spacing="0.5">Messebau</text>
    </g>

    <!-- Footer URL block -->
    <rect x="0" y="545" width="420" height="50" fill="#0a0a0a"/>
    <text x="32" y="577" font-family="Inter, Arial, sans-serif" font-weight="700" font-size="16" fill="#fff" letter-spacing="1">2fox4.de</text>
    <text x="280" y="577" font-family="Inter, Arial, sans-serif" font-weight="500" font-size="11" fill="#ff6b35" letter-spacing="1">JETZT ANFRAGEN →</text>

    <!-- Paper grain -->
    <rect x="0" y="0" width="420" height="595" fill="white" opacity="0.02" filter="url(#paperTexture)"/>
  </g>

  <!-- Pinning corners (subtle) -->
  <circle cx="405" cy="74" r="3" fill="#ff6b35" opacity="0.8"/>
  <circle cx="795" cy="74" r="3" fill="#ff6b35" opacity="0.8"/>
  <circle cx="405" cy="640" r="3" fill="#ff6b35" opacity="0.6"/>
  <circle cx="795" cy="640" r="3" fill="#ff6b35" opacity="0.6"/>
</svg>
