<svg xmlns="http://www.w3.org/2000/svg" viewBox="0 0 9741.63 2524.80" width="9741.63" height="2524.80">
<g transform="translate(89.40,2286.40) scale(1,-1)">
<path transform="translate(0.00,0)" d="M151 0V356L898 1010Q982 1086 1041.0 1149.5Q1100 1213 1131.0 1277.5Q1162 1342 1162 1418Q1162 1503 1125.0 1563.5Q1088 1624 1023.0 1657.0Q958 1690 874 1690Q789 1690 725.0 1655.5Q661 1621 625.5 1556.0Q590 1491 590 1398H121Q121 1607 215.0 1759.0Q309 1911 479.5 1993.5Q650 2076 876 2076Q1109 2076 1281.0 1998.0Q1453 1920 1547.5 1780.5Q1642 1641 1642 1457Q1642 1340 1595.0 1225.0Q1548 1110 1426.5 971.0Q1305 832 1082 638L837 412V399H1667V0Z" fill="#0a0a0a"/>
<path transform="translate(1763.21,0)" d="M155 0V2048H1553V1646H650V1226H1464V823H650V0Z" fill="#0a0a0a"/>
<path transform="translate(3375.42,0)" d="M2088 1024Q2088 686 1958.0 451.0Q1828 216 1606.5 94.0Q1385 -28 1110 -28Q834 -28 613.0 95.0Q392 218 262.5 452.5Q133 687 133 1024Q133 1362 262.5 1597.0Q392 1832 613.0 1954.0Q834 2076 1110 2076Q1385 2076 1606.5 1954.0Q1828 1832 1958.0 1597.0Q2088 1362 2088 1024ZM1582 1024Q1582 1224 1525.5 1362.0Q1469 1500 1363.5 1571.0Q1258 1642 1110 1642Q963 1642 857.0 1571.0Q751 1500 694.5 1362.0Q638 1224 638 1024Q638 824 694.5 686.0Q751 548 857.0 477.0Q963 406 1110 406Q1258 406 1363.5 477.0Q1469 548 1525.5 686.0Q1582 824 1582 1024Z" fill="#0a0a0a"/>
<path transform="translate(5562.62,0)" d="M656 2048 1030 1401H1046L1424 2048H1978L1360 1024L1998 0H1430L1046 654H1030L646 0H82L717 1024L98 2048Z" fill="#0a0a0a"/>
<path transform="translate(7608.83,0)" d="M126 340V726L965 2048H1308V1524H1109L618 746V730H1833V340ZM1115 0V458L1125 627V2048H1588V0Z" fill="#ff6b35"/>
</g></svg>